<?xml version="1.0" encoding="iso-8859-1"?>
<!-- Generator: Adobe Illustrator 23.1.0, SVG Export Plug-In . SVG Version: 6.00 Build 0)  -->
<svg version="1.1" id="&#x421;&#x43B;&#x43E;&#x439;_1"
	 xmlns="http://www.w3.org/2000/svg" xmlns:xlink="http://www.w3.org/1999/xlink" x="0px" y="0px" viewBox="0 0 5000 5000"
	 style="enable-background:new 0 0 5000 5000;" xml:space="preserve">
<g>
	<path style="fill:#333333;" d="M4297.166,3153.307c-91.351-75.508-199.474-132.49-312.759-164.813
		c-91.854-26.244-245.597-70.177-395.574-18.243c-19.128,6.624-31.712,11.595-43.883,16.406
		c-18.068,7.136-36.746,14.52-79.449,28.203c-64.57,20.693-130.861,35.917-197.818,45.656c11.569-28.333,15.441-59.341,10.901-90.42
		c-6.698-45.866-30.854-86.377-68.023-114.074c-37.166-27.694-82.877-39.257-128.761-32.558l-668.602,97.633l-97.636-668.608
		c-6.045-41.389-26.314-77.258-55.125-103.369l180.594-26.618l213.466,472.201c15.384,33.949,48.196,54.724,84.411,54.724
		c4.784,0,9.627-0.363,14.494-1.105c41.705-6.356,73.203-38.736,78.376-80.572l63.418-512.19l189.556-27.94
		c-15.739,26.117-24.805,56.686-24.793,89.332v620.985c0,17.517,14.199,31.715,31.715,31.715s31.715-14.198,31.715-31.715v-620.997
		c-0.024-60.663,49.286-110.05,109.919-110.095h0.081c29.106,0,56.648,11.506,77.552,32.403
		c20.936,20.93,32.457,48.52,32.445,77.703v836.692c0,17.517,14.198,31.715,31.715,31.715s31.715-14.198,31.715-31.715v-836.68
		c0.018-46.125-18.104-89.656-51.031-122.572c-32.886-32.877-76.348-50.977-122.396-50.977h-0.128
		c-9.68,0.007-19.164,0.85-28.417,2.39l-1083.916,159.764c-0.083,0.012-0.158,0.043-0.241,0.056c-0.638,0.086-1.272,0.136-1.91,0.23
		c-94.675,13.826-160.458,102.104-146.635,196.784l90.796,621.792c-120.58,9.978-245.412,37.377-371.903,81.619
		c-73.581-94.969-198.384-168.839-347.791-193.709c-65.266-10.869-129.129-11.377-188.731-3.007c-0.015,0-0.03-0.005-0.045-0.005
		c-3.136,0-6.104,0.596-8.965,1.443c-174.86,27.399-311.243,131.658-335.104,274.99c-3.437,20.646-4.261,41.272-2.93,61.721
		c-23.613,10.093-53.058,28.14-77.365,60.19c-34.551,45.553-39.114,93.534-38.762,117.625v305.533
		c0,106.062,83.291,192.35,185.669,192.35h825.454c17.517,0,31.715-14.198,31.715-31.715c0-17.517-14.199-31.715-31.715-31.715
		H877.011c-67.404,0-122.238-57.834-122.238-128.919l-0.003-305.992c-0.238-16.391,2.809-48.425,25.874-78.835
		c11.995-15.815,25.863-26.504,38.655-33.742c44.413,145.645,202.677,270.839,406.633,304.79
		c35.635,5.933,70.814,8.778,105.151,8.778c154.104,0,290.361-57.421,366.724-150.512l57.578,88.645
		c0.128,0.2,0.259,0.396,0.393,0.593c13.406,19.661,20.79,44.809,20.79,70.808v112.996c0,96.397,68.798,174.821,153.364,174.821
		h1450.01c0.368,0,0.715-0.074,1.078-0.086h692.829c57.762,0,104.755-46.992,104.755-104.799l-0.849-573.528
		c27.495,17.555,53.941,36.719,79,57.432c5.915,4.888,13.072,7.271,20.188,7.271c9.129,0,18.193-3.923,24.463-11.509
		C4312.564,3184.456,4310.667,3164.464,4297.166,3153.307z M2830.095,2065.154l-61.265,494.806
		c-2.556,20.662-19.769,24.859-24.984,25.654c-5.227,0.807-22.958,1.921-31.563-17.067l-205.988-455.667L2830.095,2065.154z
		 M2034.906,2293.472c-8.769-60.071,32.969-116.082,93.04-124.856c5.37-0.783,10.702-1.165,15.977-1.165
		c53.723,0,100.885,39.501,108.876,94.205l102.217,699.99c1.215,8.322,5.686,15.822,12.432,20.847
		c6.746,5.028,15.217,7.178,23.533,5.951l699.987-102.217c29.094-4.262,58.114,3.086,81.692,20.659
		c23.584,17.573,38.911,43.275,43.162,72.378c4.25,29.1-3.089,58.114-20.662,81.698c-17.573,23.581-43.275,38.908-72.375,43.159
		l-840.317,122.703c-29.112,4.256-58.117-3.089-81.695-20.659c-23.584-17.573-38.911-43.278-43.162-72.378L2034.906,2293.472z
		 M1696.21,3233.218v-0.003c-26.601,159.789-232.866,259.051-459.865,221.268c-226.966-37.782-389.977-198.521-363.379-358.306
		c19.596-117.709,136.707-202.499,287.745-223.937c0.06-0.012,0.124-0.013,0.185-0.026c24.509-3.469,49.877-5.332,75.901-5.332
		c31.26,0,63.448,2.6,96.033,8.024C1559.797,2912.688,1722.808,3073.426,1696.21,3233.218z M1929.931,3759.748
		c-49.589,0-89.933-49.971-89.933-111.391v-112.996c0-38.489-11.223-76.199-31.608-106.241l-72.946-112.302
		c11.107-22.998,19.05-47.456,23.333-73.185v-0.003c10.434-62.676-2.007-125.235-32.278-182.736
		c117.812-39.998,233.779-64.704,345.622-73.59L2093.687,3135c-39.469-18.954-76.309-29.886-105.675-36.101
		c-17.153-3.64-33.97,7.321-37.595,24.46c-3.628,17.138,7.324,33.97,24.46,37.595c48.032,10.166,119.138,34.676,185.112,93.701
		c61.149,54.712,92.882,117.017,108.737,159.651c4.751,12.775,16.855,20.671,29.729,20.671c3.673,0,7.407-0.643,11.05-1.999
		c16.417-6.103,24.778-24.361,18.672-40.779c-10.493-28.219-27.078-63.886-52.557-101.1c5.33-0.288,10.669-0.733,16.014-1.513
		l840.314-122.703c30.965-4.52,59.472-17.027,83.261-36.096c20.832-2.015,41.631-4.465,62.366-7.501l-1.528,371.524H2145.051
		c-17.517,0-31.715,14.198-31.715,31.715c0,17.517,14.198,31.715,31.715,31.715h1130.734l-0.658,160.101
		c0,14.705,3.075,28.696,8.569,41.407H1929.931z M4073.848,3759.661h-693.97c-22.786,0-41.321-18.535-41.321-41.19l2.493-606.143
		c48.56-9.604,96.626-21.943,143.812-37.065c44.699-14.327,64.372-22.097,83.398-29.615c12.078-4.775,23.486-9.281,41.327-15.458
		c131.049-45.369,267.259-6.458,357.496,19.322c50.563,14.427,100.014,34.223,147.185,58.653l0.904,610.176
		C4115.172,3741.126,4096.634,3759.661,4073.848,3759.661z"/>
	<path style="fill:#333333;" d="M3713.314,4191.838H897.247c-78.561,0-142.474-63.913-142.474-142.471V3855.54
		c0-17.517-14.199-31.715-31.715-31.715s-31.715,14.199-31.715,31.715v193.827c0,113.535,92.37,205.902,205.905,205.902h2816.067
		c17.517,0,31.715-14.198,31.715-31.715S3730.831,4191.838,3713.314,4191.838z"/>
	<path style="fill:#333333;" d="M2364.79,1785.61c13.692,22.602,30.262,43.672,49.525,62.747
		c61.086,60.488,141.944,93.737,227.862,93.734c0.542,0,1.096,0,1.641-0.003l44.976-0.223
		c123.175-0.608,230.148-70.262,284.403-172.014c74.751-34.846,172.213-99.098,233.594-212.28
		c125.223-230.901,20.453-523.909-153.179-673.785c-112.93-97.484-262.732-146.516-421.847-138.132
		c-156.086,8.25-302.939,73.721-402.904,179.625c-70.019,74.177-121.479,171.336-144.905,273.577
		c-26.148,114.113-16.316,227.63,28.43,328.277C2176.536,1671.433,2294.489,1749.793,2364.79,1785.61z M2688.481,1878.434
		l-44.976,0.223c-0.444,0.003-0.882,0.003-1.322,0.003c-69.09,0-134.12-26.738-183.238-75.374
		c-49.432-48.949-76.843-114.226-77.185-183.807l-1.224-248.328c-0.478-96.857,51.848-184.028,135.31-229.612
		c27.443,49.698,62.416,86.15,104.651,108.691c40.198,21.451,77.644,26.199,113.854,30.789
		c36.174,4.587,73.581,9.332,118.777,31.203c34.874,16.877,66.216,41.7,93.398,73.685l1.134,230.785
		C2948.369,1760.309,2832.102,1877.728,2688.481,1878.434z M2274.986,968.819c186.577-197.654,531.054-214.951,737.177-37.02
		c154.633,133.476,248.855,392.729,138.87,595.533c-38.345,70.707-93.508,119.611-145.98,152.932
		c4.045-20.672,6.145-42.028,6.038-63.883l-1.188-241.948l-0.003-0.375c-0.003-0.373-0.103-0.717-0.118-1.087
		c-0.046-1.122-0.197-2.226-0.363-3.341c-0.145-0.963-0.276-1.92-0.505-2.852c-0.253-1.038-0.614-2.042-0.974-3.057
		c-0.333-0.927-0.652-1.849-1.066-2.732c-0.463-0.995-1.031-1.943-1.604-2.899c-0.481-0.794-0.952-1.582-1.5-2.328
		c-0.286-0.395-0.477-0.83-0.783-1.215c-34.667-43.498-75.792-76.95-122.229-99.423c-54.542-26.396-99.107-32.046-138.427-37.029
		c-33.309-4.224-62.075-7.872-91.97-23.825c-50.027-26.699-87.792-82.279-112.24-165.192c-4.956-16.802-22.601-26.41-39.391-21.448
		c-16.799,4.953-26.402,22.589-21.448,39.391c3.745,12.704,7.804,24.887,12.154,36.568
		c-106.211,56.027-172.93,165.836-172.33,287.876l1.224,248.325c0.115,23.224,2.731,46.039,7.574,68.203
		c-55.035-39.293-116.749-99.33-155.556-186.626C2082.782,1304.405,2163.205,1087.242,2274.986,968.819z"/>
</g>
</svg>
