<?xml version="1.0" encoding="iso-8859-1"?>
<!-- Generator: Adobe Illustrator 23.1.0, SVG Export Plug-In . SVG Version: 6.00 Build 0)  -->
<svg version="1.1" id="&#x421;&#x43B;&#x43E;&#x439;_1"
	 xmlns="http://www.w3.org/2000/svg" xmlns:xlink="http://www.w3.org/1999/xlink" x="0px" y="0px" viewBox="0 0 5000 5000"
	 style="enable-background:new 0 0 5000 5000;" xml:space="preserve">
<g>
	<path style="fill:#333333;" d="M4297.989,4112.58c-201.292-35.945-401.436-57.524-594.801-64.13
		c-121.5-4.375-216.087-2.396-289.171,6.076c-18.643,2.16-32.001,19.022-29.844,37.665c2.164,18.643,19.058,31.963,37.668,29.841
		c69.638-8.07,160.86-9.928,278.959-5.664c190.213,6.497,387.114,27.731,585.241,63.111c2.023,0.361,4.027,0.536,6.012,0.536
		c16.147-0.003,30.476-11.558,33.411-28.012C4328.765,4133.53,4316.459,4115.88,4297.989,4112.58z"/>
	<path style="fill:#333333;" d="M2464.773,1639.459c-37.247-5.843-69.235-8.013-90.406-9.449
		c-10.212-0.693-20.774-1.407-24.342-2.113c-0.223-0.045-0.447-0.086-0.677-0.125c-13.499-2.467-134.208-21.642-358.138,33.313
		c-116.018,28.366-329.028,151.469-522.541,354.714c-165.36,173.673-371.081,464.627-412.056,864.595
		c-3.038,30.926-5.214,62.486-6.459,93.808c-0.747,18.751,13.85,34.557,32.601,35.304c18.719,0.59,34.56-13.85,35.307-32.604
		c1.193-30.01,3.274-60.246,6.165-89.723c39.009-380.725,235.604-658.519,393.656-824.517
		c196.569-206.452,400.415-313.787,489.499-335.57c214.338-52.597,325.173-33.306,329.788-32.46c0.019,0.003,0.038,0.006,0.051,0.01
		c7.754,1.49,17.66,2.164,32.543,3.172c21.177,1.436,50.184,3.405,84.477,8.782c54.435,8.559,108.991,0.418,157.644-23.43
		l425.382-206.481c31.848,1.187,51.269,11.744,62.081,20.682c21.285,17.711,28.389,43.99,42.404,101.645
		c6.887,28.733,11.648,57.754,14.143,86.251c1.411,16.068,13.92,28.928,29.939,30.785l565.392,65.515
		c49.131,5.594,87.61,64.596,87.61,134.319v932.87c0,73.145-43.47,134.942-94.924,134.942h-239.484
		c-18.764,0-33.979,15.212-33.979,33.979c0,18.767,15.215,33.979,33.979,33.979h239.484c89.812,0,162.883-91.021,162.883-202.901
		v-346.166c87.486-3.004,299.344,0.228,384.516,1.986c0.243,0.003,0.479,0.006,0.715,0.006c18.438,0,33.578-14.756,33.96-33.281
		c0.383-18.761-14.513-34.283-33.271-34.672c-12.701-0.262-275.051-5.593-385.92-1.987v-518.756
		c0-105.465-63.574-192.239-147.808-201.835l-538.432-62.391c-3.006-22.807-7.27-45.768-12.746-68.591
		c-14.833-61.025-25.548-105.114-65.074-138.008c-20.411-16.872-56.726-36.619-113.337-36.433
		c-5.048,0.042-10.02,1.206-14.564,3.411l-432.741,210.052C2545.918,1639.817,2505.365,1645.832,2464.773,1639.459z"/>
	<path style="fill:#333333;" d="M742.54,1410.876c65.422,14.966,128.724,33.009,188.958,53.85
		c-30.833,255.642,16.856,472.424,132.302,597.738c6.701,7.27,15.835,10.955,25,10.955c8.233,0,16.485-2.974,23.015-8.99
		c13.805-12.714,14.686-34.212,1.972-48.014c-105.723-114.754-146.328-322.432-111.397-569.83
		c20.896-149.573,67.838-306.681,139.639-467.499c77.221,52.683,149.133,108.079,214.588,165.16
		c-89.938,166.441-146.49,331.181-163.74,477.923c-17.839,151.749,6.089,281.84,69.191,376.206
		c6.555,9.8,17.315,15.094,28.28,15.094c6.491,0,13.058-1.857,18.86-5.738c15.598-10.432,19.785-31.535,9.356-47.134
		c-114.525-171.254-72.178-480.57,110.516-807.24c68.572-122.608,155.008-245.391,257.214-365.43
		c102.315,120.227,188.508,243.307,256.499,366.323c70.716,128.007,120.173,252.919,146.991,371.263
		c4.148,18.308,22.357,29.764,40.649,25.631c18.298-4.149,29.774-22.348,25.625-40.649
		c-26.527-117.072-73.826-239.737-140.681-364.978c66.817-58.068,139.205-113.877,216.069-166.348
		c71.795,160.806,118.737,317.913,139.652,467.576c4.774,33.619,8.15,67.659,10.033,101.179
		c1.021,18.088,16.007,32.071,33.896,32.071c0.645,0,1.289-0.016,1.94-0.054c18.739-1.053,33.073-17.098,32.02-35.834
		c-1.482-26.286-3.836-52.866-7.003-79.308c60.222-20.84,123.522-38.878,188.938-53.843c-1.047,36.861-3.459,73.058-7.218,108.056
		c-1.998,18.659,11.501,35.409,30.163,37.41c1.232,0.134,2.457,0.198,3.67,0.198c17.136,0,31.873-12.931,33.743-30.358
		c5.438-50.698,8.195-103.722,8.195-157.596c0-10.215-4.595-19.891-12.516-26.343c-7.92-6.456-18.323-9.002-28.325-6.938
		c-78.573,16.204-154.582,36.727-226.604,61.064c-26.123-155.178-78.308-317.16-155.537-482.183
		c-4.187-8.942-12.05-15.621-21.553-18.301c-9.484-2.677-19.696-1.095-27.936,4.34c-87.495,57.733-169.762,119.794-245.404,184.704
		c-72.72-125.203-163.282-249.99-269.752-371.464c-6.453-7.359-15.764-11.581-25.555-11.581c-9.791,0-19.102,4.222-25.555,11.584
		c-106.211,121.198-196.88,245.58-270.071,370.268c-74.196-63.843-156.134-125.489-244.198-183.591
		c-8.246-5.438-18.451-7.021-27.935-4.34c-9.503,2.681-17.366,9.36-21.553,18.301c-77.239,165.051-129.43,327.042-155.541,482.173
		c-72.028-24.335-148.035-44.849-226.601-61.051c-10.008-2.074-20.398,0.482-28.318,6.928c-7.914,6.446-12.516,16.115-12.522,26.327
		c-0.204,292.585,79.288,545.565,218.091,694.075c6.695,7.158,15.752,10.777,24.834,10.777c8.31,0,16.645-3.031,23.193-9.156
		c13.716-12.813,14.437-34.314,1.628-48.027C822.996,1889.187,749.708,1665.075,742.54,1410.876z"/>
	<path style="fill:#333333;" d="M3398.923,3854.306c0-39.842-15.52-76.497-41.408-105.514
		c86.981-15.967,152.555-84.647,152.499-166.654c-0.062-90.954-80.944-165.478-182.096-169.74
		c24.175-28.464,38.545-63.865,38.545-102.208c0-93.721-85.715-169.968-191.055-169.968l-889.963-0.373
		c51.724-42.798,101.548-87.681,148.719-134.224c155.384-153.313,183.779-224.071,179.222-288.743
		c-3.268-46.559-19.421-84.958-48.027-114.132c-33.06-33.721-78.924-51.722-128.917-50.998
		c-66.249,1.094-110.906,35.674-127.57,51.11c-104.849,89.94-215.818,175.01-329.82,252.862
		c-124.372,84.933-255.249,163.241-389.335,232.933c-62.56,33.444-133.537,51.123-205.269,51.123h-380.227
		c-18.764,0-33.979,15.212-33.979,33.979s15.215,33.979,33.979,33.979h380.227c82.868,0,164.932-20.455,236.957-58.966
		c136.141-70.754,269.366-150.47,395.966-236.928c116.248-79.377,229.381-166.132,336.272-257.849
		c0.37-0.319,0.734-0.645,1.092-0.977c8.15-7.63,38.217-32.578,82.836-33.313c31.095-0.574,59.394,10.352,79.262,30.626
		c25.587,26.097,27.974,60.122,28.771,71.527c2.553,36.22-14.36,92.509-159.169,235.39
		c-65.401,64.528-135.983,125.87-209.859,182.556l-74.685-0.031c-0.006,0-0.006,0-0.013,0c-18.758,0-33.973,15.206-33.979,33.967
		c-0.006,18.764,15.196,33.986,33.967,33.992l1073.527,0.45c66.734,0,123.109,46.716,123.109,102.009
		c0,55.252-56.292,101.93-122.962,101.999h-827.214c-18.764,0-33.979,15.212-33.979,33.979c0,18.767,15.215,33.979,33.979,33.979
		h970.593c66.708,0.051,123.096,46.779,123.134,102.034c0.038,55.322-56.35,102.104-123.109,102.153h-108.284
		c-0.945-0.013-1.878-0.064-2.826-0.064h-859.598c-18.764,0-33.979,15.212-33.979,33.979c0,18.767,15.215,33.979,33.979,33.979
		h859.598c67.895,0,123.128,45.79,123.128,102.076c0,33.348-24.929,61.27-35.645,71.725c-46.1,44.96-110.906,38.308-126.042,36.01
		c-13.401-2.665-27.138-4.082-41.003-4.082h-772.421c-18.764,0-33.979,15.212-33.979,33.979c0,18.767,15.216,33.979,33.979,33.979
		h772.421c11.546,0,22.938,1.366,33.986,4.094c52.456,12.742,89.212,52.999,89.385,97.768c0,55.449-56.496,102.292-123.371,102.292
		H1687.112c-48.965,0-94.114-20.548-120.875-55.095c-19.683-25.163-46.1-45.844-76.505-59.87
		c-30.22-13.798-64.072-21.094-97.899-21.094h-380.017c-18.764,0-33.979,15.212-33.979,33.979c0,18.768,15.215,33.979,33.979,33.979
		h380.017c24.157,0,48.244,5.17,69.548,14.9c20.526,9.465,38.275,23.289,51.231,39.848c39.436,50.915,104.67,81.311,174.499,81.311
		h1441.162c105.5,0,191.33-76.374,191.33-170.386c-0.163-41.24-17.347-79.789-46.098-109.744
		c23.524-8.549,47.611-22.096,69.272-43.224C3359.659,3958.204,3398.923,3913.506,3398.923,3854.306z"/>
</g>
</svg>
