<?xml version="1.0" encoding="iso-8859-1"?>
<!-- Generator: Adobe Illustrator 23.1.0, SVG Export Plug-In . SVG Version: 6.00 Build 0)  -->
<svg version="1.1" id="&#x421;&#x43B;&#x43E;&#x439;_1"
	 xmlns="http://www.w3.org/2000/svg" xmlns:xlink="http://www.w3.org/1999/xlink" x="0px" y="0px" viewBox="0 0 5000 5000"
	 style="enable-background:new 0 0 5000 5000;" xml:space="preserve">
<g>
	<path style="fill:#333333;" d="M788.24,2198.354c36.258-26.66,75.95-32.351,102.769-32.43h580.741
		c16.586,1.72,40.504,7.874,62.912,27.051c40.327,34.506,47.125,86.991,48.249,102.254c0.062,0.836,0.308,1.607,0.428,2.425
		c0.148,0.987,0.289,1.965,0.519,2.923c0.295,1.233,0.686,2.41,1.112,3.585c0.33,0.909,0.657,1.808,1.06,2.679
		c0.519,1.118,1.114,2.172,1.747,3.218c0.498,0.827,0.997,1.641,1.562,2.419c0.708,0.974,1.479,1.876,2.284,2.768
		c0.647,0.717,1.292,1.419,1.996,2.08c0.892,0.834,1.836,1.584,2.81,2.318c0.738,0.554,1.468,1.098,2.249,1.591
		c1.108,0.7,2.26,1.297,3.444,1.868c0.743,0.355,1.476,0.713,2.249,1.014c1.344,0.53,2.725,0.931,4.139,1.285
		c0.703,0.175,1.395,0.359,2.115,0.489c1.5,0.273,3.023,0.398,4.573,0.462c0.489,0.021,0.946,0.145,1.438,0.145
		c0.297,0,0.571-0.079,0.866-0.087c0.538-0.016,1.055,0.081,1.596,0.04c0.924-0.068,1.777-0.332,2.679-0.471
		c0.876-0.134,1.746-0.255,2.598-0.456c1.328-0.313,2.593-0.733,3.851-1.196c0.82-0.302,1.635-0.591,2.425-0.952
		c1.197-0.55,2.325-1.189,3.44-1.868c0.755-0.458,1.504-0.909,2.219-1.425c1.019-0.735,1.958-1.541,2.885-2.381
		c0.698-0.628,1.384-1.251,2.025-1.935c0.806-0.863,1.533-1.779,2.247-2.722c0.609-0.804,1.206-1.604,1.742-2.461
		c0.594-0.95,1.101-1.939,1.6-2.948c0.479-0.962,0.939-1.92,1.323-2.932c0.387-1.02,0.682-2.065,0.971-3.127
		c0.298-1.09,0.578-2.174,0.765-3.305c0.175-1.058,0.251-2.131,0.324-3.217c0.057-0.791,0.238-1.546,0.238-2.35
		c0-69.938,49.118-126.839,109.497-126.839h885.422c18.662,0,33.795-15.13,33.795-33.795s-15.133-33.795-33.795-33.795h-885.422
		c-60.36,0-113.734,33.349-145.717,84.123c-9.302-14.258-20.941-28.226-35.604-40.775c-36.588-31.31-75.753-40.746-102.166-43.148
		c-1.016-0.092-2.038-0.14-3.06-0.14H890.907c-53.035,0.159-102.381,15.914-142.708,45.567
		c-87.223,64.134-130.267,191.966-109.656,325.663c0.051,0.33,0.178,0.627,0.238,0.954c0.146,0.792,0.376,1.541,0.574,2.312
		c0.349,1.349,0.725,2.674,1.225,3.945c0.271,0.684,0.592,1.331,0.905,1.993c0.608,1.289,1.265,2.533,2.02,3.721
		c0.363,0.569,0.749,1.111,1.144,1.657c0.851,1.174,1.76,2.282,2.749,3.331c0.448,0.477,0.897,0.939,1.373,1.389
		c1.06,1.004,2.182,1.915,3.361,2.773c0.519,0.378,1.02,0.762,1.56,1.109c1.282,0.827,2.628,1.531,4.016,2.18
		c0.514,0.24,1.001,0.514,1.53,0.729c1.69,0.689,3.44,1.216,5.24,1.626c0.271,0.061,0.525,0.166,0.8,0.221
		c2.158,0.436,4.362,0.708,6.622,0.708c0.151,0,0.306-0.033,0.457-0.035h589.558v1162.024c0,18.665,15.133,33.795,33.795,33.795
		h193.527c18.662,0,33.795-15.13,33.795-33.795v-415.875l519.781-296.453h602.536c18.662,0,33.795-15.13,33.795-33.795
		s-15.133-33.795-33.795-33.795h-484.028l500.773-285.613c16.212-9.245,21.855-29.885,12.613-46.097
		c-9.249-16.212-29.878-21.868-46.103-12.613l-1105.571,630.554v-668.338h1122.317c18.662,0,33.795-15.13,33.795-33.795v-0.003
		c0-18.665-15.133-33.795-33.795-33.795h-885.422c-0.01,0-0.019,0.003-0.032,0.003H702.172
		C694.677,2332.522,726.995,2243.387,788.24,2198.354z M1455.443,3626.408h-125.938V2498.179h125.938V3626.408z"/>
	<path style="fill:#333333;" d="M1197.531,1961.904l1057.482,0.248c0,0,0,0,0.006,0c18.662,0,33.789-15.126,33.795-33.789
		s-15.12-33.798-33.789-33.801l-1057.482-0.248c-134.881-0.032-247.876-81.644-257.232-185.802
		c-4.386-48.734,14.447-98.106,53.035-139.02c50.273-53.301,124.363-82.478,203.138-80c0.349,0.01,0.705,0.016,1.054,0.016
		l1045.643-0.003c29.409-0.409,57.3,10.48,76.464,30.028c14.834,15.136,22.636,33.811,21.963,52.574
		c-1.542,42.974-46.471,78.552-98.82,77.673l-1045.085-4.345h-0.14c-18.599,0-33.719,15.038-33.795,33.655
		c-0.076,18.662,14.993,33.855,33.655,33.935l1044.659,4.339c1.028,0.019,2.038,0.029,3.066,0.029
		c87.883,0,161.161-63.527,164.011-142.864c1.339-37.473-13.311-73.807-41.247-102.308c-31.44-32.075-76.121-50.324-122.465-50.324
		c-0.927,0-1.866,0.006-2.799,0.022H1198.051c-97.9-2.952-190.455,33.954-253.875,101.201
		c-52.051,55.183-77.327,123.176-71.189,191.445C885.448,1853.222,1028.004,1961.865,1197.531,1961.904z"/>
	<path style="fill:#333333;" d="M2930.435,3588.617c-18.662,0-33.795,15.13-33.795,33.795v747.83
		c0,18.666,15.133,33.795,33.795,33.795s33.795-15.129,33.795-33.795v-747.83C2964.23,3603.747,2949.097,3588.617,2930.435,3588.617
		z"/>
	<path style="fill:#333333;" d="M4170.252,3608.216c-18.662,0-33.795,15.13-33.795,33.795v728.231
		c0,18.666,15.133,33.795,33.795,33.795s33.795-15.129,33.795-33.795v-728.231
		C4204.047,3623.345,4188.915,3608.216,4170.252,3608.216z"/>
	<path style="fill:#333333;" d="M3246.434,1718.987c14.781,24.352,32.662,47.05,53.447,67.591
		c65.793,65.022,152.807,100.753,245.248,100.753c0.705,0,1.416-0.003,2.12-0.006l48.515-0.289
		c93.222-0.549,180.648-37.359,246.162-103.654c24.419-24.707,44.694-52.416,60.512-82.274
		c80.971-37.941,186.205-107.508,251.392-229.037c133.897-249.647,20.795-565.195-165.908-726.039
		c-119.945-103.337-285.435-157.739-454.054-149.195c-168.905,8.534-327.495,79.574-435.106,194.908
		c-80.031,85.782-136.341,198.764-158.552,318.135c-24.089,129.467-6.957,255.341,49.543,364.013
		C3057.28,1603.767,3164.695,1678.365,3246.434,1718.987z M3793.856,1735.873c-52.825,53.45-123.316,83.132-198.491,83.573
		l-48.515,0.289c-0.578,0.003-1.136,0.006-1.714,0.006c-74.528,0-144.701-28.812-197.742-81.237
		c-53.454-52.828-83.135-123.319-83.58-198.488l-1.574-267.871c-0.619-104.781,55.882-199.26,146.225-248.533
		c29.659,53.769,67.457,93.173,113.109,117.476c43.316,23.061,83.675,28.136,122.7,33.046c39.063,4.916,79.447,9.994,128.286,33.573
		c37.724,18.211,71.633,45.033,101.061,79.611l1.466,249.099C3875.531,1611.586,3846.681,1682.419,3793.856,1735.873z
		 M3148.185,837.854c200.053-214.424,571.848-233.397,795.622-40.615c166.511,143.451,268.322,423.141,150.458,642.884
		c-41.012,76.461-101.001,129.518-158.126,165.672c4.447-22.737,6.678-46.081,6.538-69.778l-1.536-260.682v-0.406h-0.149
		c0.006-7.405-2.26-14.858-7.24-21.093c-37.419-46.836-81.764-82.834-131.803-106.996c-58.811-28.39-106.85-34.433-149.24-39.765
		c-35.972-4.526-67.044-8.433-99.373-25.648c-54.095-28.799-94.955-88.794-121.456-178.322
		c-5.294-17.897-24.07-28.095-41.996-22.813c-17.894,5.297-28.114,24.099-22.813,41.996c4.091,13.825,8.528,27.068,13.286,39.767
		c-114.569,60.421-186.485,178.882-185.707,310.49l1.574,267.871c0.152,25.867,3.196,51.256,8.788,75.885
		c-56.031-38.873-114.283-94.724-155.286-173.589C2940.274,1232.209,3016.407,979.093,3148.185,837.854z"/>
	<path style="fill:#333333;" d="M4306.511,2070.944c-51.46-51.406-113.528-58.928-137.827-59.776
		c-0.394-0.016-0.787-0.022-1.181-0.022l-347.61-0.014c-1.047-0.086-2.073-0.013-3.11-0.001l-539.913-0.023
		c-0.682,0.016-1.346-0.057-2.031,0l-303.12-0.013c-112.43,0-203.893,91.365-203.893,203.671v1050.575
		c0,1.896,0.257,3.724,0.559,5.535c2.285,64.636,34.839,124.3,88.448,160.954l610.13,415.914
		c23.185,15.783,48.518,25.994,74.442,31.154l-161.583,116.143c-60.715,43.656-145.66,29.796-189.351-30.875
		c-37.819-52.511-33.033-125.001,11.381-172.361c12.765-13.616,12.08-35.004-1.536-47.769
		c-13.622-12.768-35.001-12.086-47.772,1.536c-66.46,70.878-73.576,179.423-16.917,258.093
		c39.667,55.088,102.026,84.411,165.255,84.408c41.095-0.003,82.564-12.394,118.39-38.149l599.403-430.841l263.719-191.693
		c17.869-12.93,33.338-28.45,45.976-46.125c30.545-42.701,37.604-87.725,38.149-118.581l0.025-1048.192
		C4366.344,2189.159,4360.079,2124.464,4306.511,2070.944z M3772.794,2078.719l-189.674,689.962
		c-6.062,22.036-25.384,23.851-31.161,23.883h-0.165c-5.967,0-25.003-1.774-31.243-23.534L3322.536,2078.7L3772.794,2078.719z
		 M2971.72,2078.685l280.497,0.012l203.36,708.967c12.454,43.424,51.061,72.49,96.173,72.49h0.578
		c45.367-0.248,83.929-29.809,95.964-73.553l194.606-707.88l323.978,0.014c16.669,0.663,57.776,5.97,91.863,40.025
		c36.893,36.858,40.111,83.011,40.219,96.005l-0.006,439.991h-272.422v-92.939c0-18.665-15.133-33.795-33.795-33.795
		s-33.795,15.13-33.795,33.795v593.382l-392.879,268.002c-134.98-92.022-333.963-227.687-389.146-265.336v-593.208
		c0-18.665-15.133-33.795-33.795-33.795s-33.795,15.13-33.795,33.795v90.099h-273.908v-439.991
		C2835.417,2139.73,2896.564,2078.685,2971.72,2078.685z M2894.945,3376.009c-37.426-25.591-59.547-68.034-59.173-113.537
		c0.01-1.315-0.219-2.564-0.355-3.841v-536.284h273.908v451.826c-0.114,2.507,0.051,5.062,0.514,7.624
		c0.609,3.348,1.714,6.554,3.263,9.525c1.416,2.914,2.457,4.783,5.097,7.278c1.65,1.806,3.51,3.437,5.542,4.859
		c1.028,0.72,2.088,1.377,3.174,1.971c4.577,3.269,10.962,7.624,20.071,13.841l510.98,348.391
		c61.706,42.187,77.645,126.75,35.534,188.5c-42.123,61.782-126.687,77.797-188.481,35.725L2894.945,3376.009z M4273.396,3341.944
		c-8.385,11.727-18.688,22.052-30.678,30.732l-263.631,191.629l-196.12,140.967c9.15-73.228-21.899-149-86.89-193.434
		c-1.184-0.806-28.434-19.384-70.034-47.743l385.734-263.124c9.229-6.294,14.752-16.745,14.752-27.917v-450.709h272.419
		l-0.01,539.732C4298.564,3282.743,4293.835,3313.374,4273.396,3341.944z"/>
</g>
</svg>
