<?xml version="1.0" encoding="iso-8859-1"?>
<!-- Generator: Adobe Illustrator 23.1.0, SVG Export Plug-In . SVG Version: 6.00 Build 0)  -->
<svg version="1.1" id="&#x421;&#x43B;&#x43E;&#x439;_1"
	 xmlns="http://www.w3.org/2000/svg" xmlns:xlink="http://www.w3.org/1999/xlink" x="0px" y="0px" viewBox="0 0 5000 5000"
	 style="enable-background:new 0 0 5000 5000;" xml:space="preserve">
<g>
	<path style="fill:#333333;" d="M2616.267,3647.694h-432.081c-67.36,0-122.158-67.16-122.158-149.718V3352.84
		c0-48.192-14.096-95.526-39.471-132.941l-89.493-135.427c16.832-34.078,28.401-70.386,34.076-108.115
		c12.446-82.742-3.832-165.384-42.291-240.773c238.535-80.475,469.976-112.02,688.53-93.584c19.027,1.682,35.494-12.42,37.08-31.305
		c1.592-18.885-12.42-35.488-31.305-37.08c-232.402-19.599-478.123,14.805-730.708,101.957
		c-80.808-114.155-214.851-204.284-375.778-240.206c-20.828-169.103-160.263-297.957-328.344-297.957
		c-182.531,0-331.031,153.36-331.031,341.859c0,66.696,18.327,130.485,53.093,185.855c-17.757,35.058-29.903,72.531-35.768,111.519
		c-4.217,28.04-4.992,56.058-2.881,83.802c-27.483,13.052-62.813,36.149-91.304,75.926c-40.941,57.138-45.169,116.46-43.951,147.23
		v391.946c0,132.754,95.597,240.758,213.095,240.758h929.388c18.949,0,34.315-15.366,34.315-34.315s-15.366-34.315-34.315-34.315
		H945.577c-79.658,0-144.465-77.215-144.465-172.128v-392.655c0-0.496-0.013-0.986-0.032-1.482
		c-0.935-21.701,1.863-64.208,31.144-105.072c14.665-20.467,31.862-34.606,47.673-44.424
		c49.664,186.266,233.438,347.244,470.698,390.957c41.559,7.657,82.996,11.421,123.673,11.421
		c122.261,0,237.587-34.019,328.124-98.607c35.382-25.241,65.781-54.669,90.718-87.191l72.413,109.582
		c17.976,26.51,27.876,60.16,27.876,94.765v145.135c0,120.398,85.587,218.348,190.788,218.348h432.081
		c18.949,0,34.315-15.366,34.315-34.315S2635.216,3647.694,2616.267,3647.694z M921.923,2479.268
		c0-150.659,117.711-273.229,262.402-273.229c126.341,0,232.315,92.59,257.013,217.381c-60.731-7.053-120.653-5.855-177.778,3.249
		c-1.344,0.166-2.67,0.348-3.961,0.664c-82.974,13.787-159.889,44.076-224.232,89.977c-33.503,23.901-62.569,51.537-86.736,82.013
		C931.162,2562.215,921.923,2521.517,921.923,2479.268z M1762.534,3179.816c-105.6,75.339-251.238,102.899-399.5,75.558
		c-265.598-48.926-456.044-259.108-424.546-468.523c12.8-85.097,60.083-158.987,136.737-213.675
		c56.591-40.37,124.689-66.928,198.503-78.762c0.441-0.077,0.893-0.116,1.329-0.211c28.661-4.523,58.15-6.898,88.196-6.898
		c36.577,0,73.953,3.397,111.472,10.313c265.598,48.933,456.051,259.115,424.546,468.529
		C1886.471,3051.245,1839.188,3125.127,1762.534,3179.816z"/>
	<path style="fill:#333333;" d="M2616.267,3307.188h-155.809c-18.949,0-34.315,15.365-34.315,34.315s15.366,34.315,34.315,34.315
		h155.809c18.949,0,34.315-15.366,34.315-34.315S2635.216,3307.188,2616.267,3307.188z"/>
	<path style="fill:#333333;" d="M2616.248,4283.846l-1629.156-1.07c-102.513,0-185.915-85.033-185.915-189.55v-249.124
		c0-18.949-15.366-34.315-34.315-34.315s-34.315,15.366-34.315,34.315v249.124c0,142.364,114.185,258.18,254.519,258.18
		l1629.136,1.07h0.019c18.943,0,34.302-15.346,34.315-34.289C2650.55,4299.231,2635.197,4283.859,2616.248,4283.846z"/>
	<path style="fill:#333333;" d="M3183.226,3187.935c0.899,0.503,1.763,1.049,2.71,1.471c1.073,0.477,2.214,0.799,3.342,1.167
		c1.018,0.33,2.004,0.712,3.062,0.951c1.144,0.255,2.336,0.338,3.519,0.477c0.944,0.113,1.847,0.35,2.813,0.384
		c15.701,0.541,30.519,3.622,44.047,9.139c4.248,1.734,8.637,2.552,12.955,2.552c13.529,0,26.355-8.057,31.782-21.353
		c7.161-17.551-1.257-37.576-18.801-44.737c-11.054-4.512-22.597-7.905-34.495-10.293v-125.6h38.91
		c55.03,0,99.799-44.769,99.799-99.799v-72.503c0-55.03-44.769-99.799-99.799-99.799h-395.362c-55.03,0-99.799,44.769-99.799,99.799
		v72.503c0,55.03,44.769,99.799,99.799,99.799h38.859v125.397c-89.828,17.602-156.157,95.845-156.157,190.958v840.488
		c0,107.218,87.231,194.449,194.448,194.449h170.434c18.949,0,34.315-15.366,34.315-34.315s-15.365-34.315-34.315-34.315h-170.434
		c-69.377,0-125.819-56.441-125.819-125.819v-840.488c0-69.055,53.915-124.42,122.745-126.057c1.128-0.026,2.185-0.277,3.284-0.409
		c1.028-0.127,2.079-0.168,3.078-0.384c1.515-0.322,2.939-0.843,4.373-1.357c0.641-0.232,1.312-0.384,1.937-0.653
		c1.673-0.717,3.229-1.618,4.75-2.58c0.316-0.2,0.661-0.345,0.967-0.554c1.689-1.146,3.242-2.456,4.698-3.877
		c0.097-0.094,0.209-0.169,0.306-0.264c6.407-6.404,10.329-15.267,10.097-25.037c-0.006-0.216-0.068-0.413-0.077-0.628v-154.555
		h180.333v155.996c0,1.147,0.229,2.232,0.338,3.35c0.094,0.965,0.116,1.942,0.29,2.881c0.242,1.313,0.651,2.551,1.038,3.807
		c0.274,0.89,0.483,1.798,0.825,2.656c0.487,1.215,1.118,2.336,1.734,3.479c0.435,0.807,0.812,1.642,1.308,2.409
		c0.69,1.065,1.505,2.021,2.304,3c0.596,0.728,1.138,1.489,1.789,2.166c0.848,0.88,1.798,1.635,2.736,2.42
		c0.754,0.635,1.463,1.307,2.272,1.876C3181.134,3186.814,3182.188,3187.355,3183.226,3187.935z M2846.539,2902.293v-72.503
		c0-17.19,13.98-31.169,31.169-31.169h395.362c17.19,0,31.169,13.98,31.169,31.169v72.503c0,17.189-13.98,31.169-31.169,31.169
		h-395.362C2860.519,2933.463,2846.539,2919.483,2846.539,2902.293z"/>
	<path style="fill:#333333;" d="M2874.962,2474.943c-9.771,11.962-13.593,27.515-10.512,42.636l30.183,148.745
		c3.306,16.268,17.615,27.496,33.593,27.496c2.262,0,4.563-0.226,6.864-0.69c18.569-3.771,30.57-21.882,26.806-40.457
		l-25.962-127.939h281.505l-25.962,127.939c-3.764,18.575,8.237,36.687,26.806,40.457c18.588,3.751,36.687-8.237,40.457-26.806
		l30.164-148.713c3.087-15.108-0.754-30.641-10.532-42.616c-9.803-12.001-24.305-18.891-39.781-18.891h-323.813
		C2899.248,2456.104,2884.74,2462.968,2874.962,2474.943z"/>
	<path style="fill:#333333;" d="M2820.248,2026.633c-2.842-18.743-20.406-31.589-39.071-28.785
		c-73.773,11.176-146.064,3.042-209.099-23.532c-118.761-50.067-172.805-148.809-225.077-244.303
		c-62.062-113.373-139.296-254.461-90.093-328.891c43.532-65.852,181.236-75.255,377.786-25.82
		c76.132,19.149,234.538,58.988,321.892,203.949c35.655,59.168,54.888,126.741,57.157,200.829
		c0.567,18.582,15.81,33.264,34.276,33.264c0.354,0,0.709-0.006,1.07-0.019c18.943-0.574,33.825-16.403,33.251-35.346
		c-2.597-84.788-25.755-165.754-66.973-234.152c-101.958-169.196-278.902-213.694-363.928-235.08
		c-162.622-40.896-373.003-64.64-451.778,54.527c-72.02,108.939,12.536,263.407,87.141,399.687
		c52.484,95.893,117.808,215.235,258.618,274.596c53.148,22.404,111.536,33.793,171.877,33.793c24.473,0,49.274-1.876,74.166-5.646
		C2810.2,2062.862,2823.091,2045.37,2820.248,2026.633z"/>
	<path style="fill:#333333;" d="M2529.436,1563.196c-18.008-5.794-37.479,4.048-43.3,22.082c-5.82,18.034,3.97,37.338,22.004,43.158
		c29.455,10.796,287.79,185.264,413.009,333.004c65.7,77.519,98.629,119.599,114.736,141.333
		c9.085,12.26,25.159,16.97,39.442,11.598c21.215-7.979,28.872-33.97,15.472-52.252c-23.59-32.177-63.496-81.567-117.302-145.049
		C2843.986,1764.251,2575.217,1577.975,2529.436,1563.196z"/>
	<path style="fill:#333333;" d="M3791.473,1031.251c16.017,33.277,29.848,62.017,34.315,104.717
		c6.097,58.324-8.057,120.282-42.082,184.149c-8.907,16.726-2.572,37.505,14.154,46.419c5.137,2.739,10.66,4.035,16.1,4.035
		c12.272,0,24.144-6.6,30.319-18.189c40.567-76.158,57.312-151.375,49.764-223.556c-5.711-54.566-23.512-91.562-40.728-127.334
		c-15.121-31.427-29.404-61.108-36.339-104.317c-10.016-62.397-0.309-130.885,28.862-203.569
		c7.058-17.589-1.476-37.57-19.065-44.627c-17.589-7.064-37.57,1.476-44.627,19.065c-33.87,84.401-44.949,165.148-32.936,240.011
		C3757.738,961.139,3775.663,998.387,3791.473,1031.251z"/>
	<path style="fill:#333333;" d="M4052.005,3291.384h-44.93v-164.646c0-18.949-15.366-34.315-34.315-34.315
		s-34.315,15.366-34.315,34.315v198.96c0,18.949,15.366,34.315,34.315,34.315h79.245c81.088,0,147.056,65.968,147.056,147.056
		v630.738c0,81.088-65.968,147.063-147.056,147.063h-630.738c-81.088,0-147.056-65.975-147.056-147.063V3507.07
		c0-81.088,65.968-147.056,147.056-147.056h79.245c18.949,0,34.315-15.366,34.315-34.315v-164.665l90.009-0.048l85.168,1022.107
		c1.495,17.918,16.5,31.466,34.16,31.466c0.954,0,1.921-0.039,2.887-0.116c18.885-1.579,32.923-18.163,31.35-37.047l-248.338-2980.3
		c-1.573-18.885-18.163-32.865-37.048-31.35c-18.885,1.579-32.923,18.163-31.35,37.048l157.453,1889.566l-118.626,0.064
		c-18.943,0.013-34.296,15.372-34.296,34.315v164.646h-44.93c-118.929,0-215.686,96.757-215.686,215.686v630.738
		c0,118.936,96.757,215.692,215.686,215.692h630.738c118.929,0,215.686-96.757,215.686-215.692V3507.07
		C4267.691,3388.141,4170.934,3291.384,4052.005,3291.384z"/>
	<path style="fill:#333333;" d="M3820.161,1676.44c-0.29,0-0.58,0.006-0.864,0.013c-18.949,0.464-33.928,16.204-33.458,35.146
		l58.723,2382.084c0.458,18.659,15.727,33.471,34.283,33.471c0.29,0,0.58-0.007,0.864-0.013
		c18.949-0.464,33.928-16.204,33.458-35.146l-58.723-2382.084C3853.986,1691.251,3838.717,1676.44,3820.161,1676.44z"/>
</g>
</svg>
