<?xml version="1.0" encoding="iso-8859-1"?>
<!-- Generator: Adobe Illustrator 23.1.0, SVG Export Plug-In . SVG Version: 6.00 Build 0)  -->
<svg version="1.1" id="&#x421;&#x43B;&#x43E;&#x439;_1"
	 xmlns="http://www.w3.org/2000/svg" xmlns:xlink="http://www.w3.org/1999/xlink" x="0px" y="0px" viewBox="0 0 5000 5000"
	 style="enable-background:new 0 0 5000 5000;" xml:space="preserve">
<g>
	<path style="fill:#333333;" d="M2833.349,3820.577c-0.66-0.041-1.315-0.064-1.975-0.064h-893.953
		c-19.666,0.174-69.87,5.016-111.177,46.132c-47.268,47.047-47.557,105.981-46.231,124.923
		c0.649,86.396,71.133,156.481,157.68,156.481h893.681c0.678,0,1.361-0.023,2.039-0.07c89.791-5.943,159.603-82.724,155.618-171.165
		C2985.324,3894.566,2916.942,3825.941,2833.349,3820.577z M2830.291,4086.371h-892.598c-52.938,0-96.006-43.074-96.006-96.012
		c0-0.828-0.035-1.657-0.098-2.485c-0.62-7.646-2.167-47.32,28.169-77.511c25.928-25.812,58.76-28.088,67.936-28.169h892.627
		c52.232,3.817,94.796,46.427,97.09,97.402C2929.883,4034.457,2886.398,4082.154,2830.291,4086.371z"/>
	<path style="fill:#333333;" d="M4148.1,3750.395h-122.383l-225.81-563.619c-6.331-15.808-24.294-23.495-40.096-17.158
		c-15.808,6.331-23.495,24.288-17.157,40.096l216.62,540.681h-269.778L3575.71,3465.15c-6.314-15.82-24.254-23.535-40.073-17.216
		c-15.819,6.308-23.524,24.254-17.216,40.073l104.667,262.387h-257.382l102.76-262.578c5.538-14.151-0.058-30.231-13.195-37.884
		l-249.342-145.291l124.014-317.612c6.198-15.866-1.639-33.748-17.505-39.946c-15.831-6.192-33.748,1.634-39.946,17.505
		l-165.048,422.697c-11.348,28.772-38.596,47.36-69.401,47.36c-398.009-0.18-796.545-0.533-1194.577-0.892l-34.24-0.029
		c-105.124,0-190.652,85.528-190.652,190.652v280.089c0,52.765,22.174,103.624,60.84,139.543c5.943,5.515,13.474,8.243,20.987,8.243
		c8.272,0,16.526-3.308,22.603-9.853c11.591-12.477,10.873-31.987-1.605-43.583c-26.148-24.288-41.145-58.679-41.145-94.35v-280.089
		c0-71.115,57.856-128.972,128.943-128.972l34.211,0.029c398.05,0.359,796.586,0.713,1194.624,0.892
		c56.315,0,106.085-33.916,126.829-86.501l18.362-47.03l218.184,127.136l-109.607,280.066c-0.272,0.699-0.374,1.416-0.594,2.123
		c-0.35,1.124-0.73,2.23-0.95,3.406c-0.223,1.171-0.272,2.337-0.356,3.51c-0.052,0.739-0.22,1.445-0.22,2.198
		c0,0.125,0.035,0.24,0.038,0.366c0.014,1.261,0.206,2.489,0.374,3.728c0.11,0.799,0.133,1.619,0.301,2.397
		c0.211,0.982,0.582,1.909,0.889,2.863c0.307,0.96,0.542,1.948,0.938,2.866c0.351,0.81,0.846,1.547,1.263,2.324
		c0.515,0.956,0.97,1.946,1.578,2.837c0.573,0.842,1.292,1.577,1.949,2.361c0.608,0.724,1.153,1.5,1.825,2.167
		c0.687,0.678,1.492,1.235,2.245,1.852c0.802,0.656,1.558,1.36,2.421,1.933c0.655,0.432,1.396,0.749,2.088,1.134
		c1.104,0.615,2.187,1.247,3.365,1.725c0.116,0.046,0.211,0.122,0.327,0.168c0.912,0.356,1.842,0.527,2.766,0.792
		c0.849,0.245,1.668,0.559,2.546,0.731c1.975,0.388,3.953,0.603,5.92,0.603c0.026,0,0.052-0.006,0.078-0.006h130.933v274.384
		h-407.005c-17.03,0-30.84,13.81-30.84,30.84s13.81,30.84,30.84,30.84h1103.57c52.84,0,102.714-20.778,140.441-58.505
		c37.733-37.739,58.5-87.63,58.471-140.476C4346.942,3839.542,4257.725,3750.395,4148.1,3750.395z M4244.911,4046.019
		c-26.072,26.078-60.457,40.438-96.834,40.438h-634.874v-274.384h634.886c75.634,0,137.191,61.506,137.232,137.116
		C4285.344,3985.551,4270.99,4019.941,4244.911,4046.019z"/>
	<path style="fill:#333333;" d="M2592.786,1664.347c10.612,17.171,23.315,33.213,38.037,47.761
		c48.171,47.609,111.872,73.769,179.547,73.769c0.516,0,1.043-0.006,1.558-0.006l34.588-0.203
		c96.386-0.566,180.138-54.723,223.177-133.98c58.433-27.677,133.684-78.026,180.532-165.381
		c97.043-180.937,15.298-409.449-119.802-525.84c-86.802-74.777-206.529-114.12-328.405-107.98
		c-122.137,6.169-236.859,57.59-314.752,141.073c-107.088,114.78-168.53,321.315-78.756,493.975
		C2457.013,1580.825,2533.814,1634.746,2592.786,1664.347z M2982.879,1666.422c-36.389,36.818-84.948,57.266-136.722,57.567
		l-34.594,0.203c-0.394,0.006-0.782,0.006-1.182,0.006c-51.334,0-99.667-19.845-136.207-55.956
		c-36.818-36.389-57.266-84.948-57.567-136.728l-1.124-190.941c-0.414-69.905,36.1-133.131,94.932-167.887
		c21.256,36.456,47.991,63.419,79.999,80.465c31.975,17.019,61.373,20.72,89.797,24.294c28.563,3.591,55.54,6.986,89.351,23.315
		c25.366,12.243,48.264,30.123,68.242,53.138l1.031,175.13C3039.143,1580.808,3019.268,1629.599,2982.879,1666.422z
		 M2532.366,1035.638c140.244-150.318,400.911-163.606,557.798-28.436c116.674,100.513,188.115,296.303,105.703,449.957
		c-25.557,47.654-61.755,82.264-97.677,107.131c1.564-11.655,2.395-23.535,2.326-35.622l-1.101-186.4l-0.006-0.29
		c-0.006-0.307-0.093-0.589-0.107-0.895c-0.052-1.083-0.22-2.148-0.385-3.225c-0.148-0.937-0.27-1.872-0.498-2.777
		c-0.243-0.973-0.6-1.913-0.941-2.867c-0.339-0.935-0.657-1.871-1.08-2.76c-0.429-0.905-0.962-1.762-1.486-2.634
		c-0.504-0.839-1.002-1.671-1.582-2.453c-0.243-0.33-0.4-0.695-0.657-1.017c-27.289-34.176-59.687-60.469-96.29-78.136
		c-42.912-20.72-77.742-25.099-108.466-28.969c-26.015-3.273-46.561-5.856-68.515-17.54c-36.905-19.654-64.917-61.06-83.269-123.075
		c-4.831-16.329-21.983-25.65-38.324-20.818c-16.329,4.831-25.65,21.989-20.819,38.324c2.372,8.02,4.941,15.714,7.626,23.217
		c-80.885,45.036-131.365,130.209-130.811,224.579l1.124,190.947c0.075,13.007,1.13,25.857,3.102,38.474
		c-34.773-26.514-69.5-62.621-94.793-111.27C2386.659,1311.806,2440.05,1134.581,2532.366,1035.638z"/>
	<path style="fill:#333333;" d="M2251.715,2803.398c0.892,0.933,1.842,1.807,2.838,2.624l133.792,108.768l0.596,403.141
		c0.023,17.019,13.827,30.793,30.84,30.793h0.046c17.03-0.023,30.817-13.856,30.793-30.886l-0.521-352.843l251.874,204.767
		c28.112,22.771,61.963,33.846,95.624,33.846c44.25-0.006,88.157-19.15,118.157-56.026c52.8-64.912,42.865-160.744-22.151-213.631
		l-376.078-305.75l35.984-312.238c1.952-16.926-10.183-32.219-27.104-34.17c-16.978-1.993-32.219,10.183-34.17,27.104l-5.743,49.845
		l-179.701-19.475c6.511-57.25,13.224-116.302,19.7-173.285l14.962-131.654c5.167-45.437,43.479-79.816,89.426-79.973h0.006
		l184.17-0.048l143.309,499.885c9.685,33.811,39.766,56.455,74.945,56.455h0.394c35.433-0.168,65.572-23.223,75.008-57.399
		l137.203-499.054l228.165-0.059c0.032,0.001,0.061,0.012,0.093,0.012c21.977,0.492,40.618,5.804,55.406,15.796
		c10.195,6.893,16.161,14.198,18.849,17.488c79.463,97.313,143.016,175.177,194.014,237.702l-146.289,117.488l-96.841-113.819
		c-0.26-0.307-0.582-0.526-0.854-0.821c-0.741-0.805-1.532-1.541-2.355-2.265c-0.727-0.639-1.448-1.27-2.221-1.829
		c-0.808-0.588-1.66-1.095-2.523-1.602c-0.875-0.513-1.738-1.017-2.647-1.437c-0.875-0.404-1.781-0.72-2.697-1.043
		c-0.985-0.345-1.961-0.678-2.971-0.921c-0.895-0.216-1.807-0.35-2.731-0.487c-1.115-0.164-2.221-0.295-3.348-0.336
		c-0.388-0.014-0.75-0.116-1.141-0.116c0,0-0.006,0-0.012,0c-0.527,0-1.017,0.129-1.538,0.156c-1.13,0.055-2.245,0.159-3.368,0.34
		c-0.933,0.151-1.839,0.346-2.743,0.578c-1.008,0.259-1.995,0.563-2.983,0.928c-0.944,0.349-1.856,0.74-2.754,1.177
		c-0.877,0.426-1.732,0.885-2.575,1.399c-0.933,0.569-1.813,1.189-2.679,1.851c-0.431,0.332-0.912,0.563-1.332,0.921
		c-0.313,0.266-0.536,0.594-0.834,0.869c-0.8,0.734-1.526,1.519-2.242,2.333c-0.643,0.73-1.277,1.456-1.839,2.232
		c-0.591,0.814-1.101,1.673-1.613,2.544c-0.501,0.86-0.999,1.71-1.414,2.608c-0.417,0.901-0.744,1.836-1.074,2.78
		c-0.33,0.95-0.652,1.891-0.889,2.865c-0.226,0.936-0.368,1.891-0.507,2.857c-0.154,1.07-0.281,2.13-0.322,3.211
		c-0.017,0.408-0.122,0.791-0.122,1.202l0.208,570.286c0.006,17.03,13.81,30.828,30.84,30.828c0,0,0.006,0,0.011,0
		c17.03-0.006,30.834-13.821,30.828-30.852l-0.177-486.401l213.054,250.411L3367.71,3042.76
		c-12.732,38.445-9.737,79.596,8.434,115.875c18.195,36.32,49.388,63.33,87.833,76.063c15.773,5.225,31.813,7.704,47.598,7.704
		c63.719,0,123.301-40.438,144.554-104.186l181.128-547.51c0.417-1.274,0.759-2.578,1.008-3.898
		c6.424-33.615,3.991-64.813-7.223-92.74c-7.195-17.911-16.046-29.693-19.434-34.194c-17.273-22.985-25.945-34.518-415.549-511.625
		c-3.522-4.316-14.244-17.447-31.946-29.409c-24.758-16.729-54.554-25.597-88.563-26.362c-0.101-0.003-0.194,0.023-0.295,0.022
		c-0.15-0.003-0.29-0.045-0.44-0.045h-0.006l-843.935,0.22c-0.174,0-0.336,0.049-0.51,0.052v-0.052
		c-76.926,0.266-141.496,58.163-150.196,134.683l-14.962,131.654c-23.646,208.047-50.442,443.852-59.073,517.817
		c-0.66,5.584-2.67,22.58,1.373,44.308C2213.044,2750.819,2227.913,2778.49,2251.715,2803.398z M3773.811,2517.059
		c6.54,16.294,7.959,35.225,4.223,56.281l-180.445,545.436c-15.762,47.268-66.991,72.992-114.218,57.37
		c-47.135-15.611-72.755-66.748-57.104-114.004l157.489-476.163c3.377-10.224,1.182-21.467-5.792-29.67l-141.826-166.693
		l145.284-116.679c160.588,197.002,168.483,207.496,180.926,224.05C3764.532,2499.895,3769.646,2506.702,3773.811,2517.059z
		 M2849.244,2436.866c-3.001,10.873-12.078,12.083-15.837,12.101h-0.087c-3.771,0-12.628-1.17-15.663-11.765l-138.44-482.913
		l302.729-0.078L2849.244,2436.866z M2267.43,2683.694c5.399-46.254,17.948-156.241,32.389-283.142l179.611,19.463l-25.114,217.917
		c-1.205,10.467,3.012,20.819,11.186,27.463l389.187,316.409c38.625,31.419,44.557,88.331,13.219,126.852
		c-31.407,38.619-88.43,44.516-127.066,13.213l-445.804-362.425c-14.638-15.709-23.686-32.398-26.895-49.608
		C2265.814,2697.342,2266.996,2687.361,2267.43,2683.694z"/>
	<path style="fill:#333333;" d="M1071.839,3417.952c-230.951,0-418.839,153.515-418.839,342.215s187.889,342.215,418.839,342.215
		s418.845-153.515,418.845-342.215S1302.79,3417.952,1071.839,3417.952z M1071.839,4040.702
		c-196.937,0-357.16-125.85-357.16-280.535s160.223-280.535,357.16-280.535c196.942,0,357.165,125.85,357.165,280.535
		S1268.781,4040.702,1071.839,4040.702z"/>
</g>
</svg>
