<?xml version="1.0" standalone="no"?>
<!DOCTYPE svg PUBLIC "-//W3C//DTD SVG 20010904//EN"
 "http://www.w3.org/TR/2001/REC-SVG-20010904/DTD/svg10.dtd">
<svg version="1.0" xmlns="http://www.w3.org/2000/svg"
 width="506.000000pt" height="215.000000pt" viewBox="0 0 506.000000 215.000000"
 preserveAspectRatio="xMidYMid meet">

<g transform="translate(0.000000,215.000000) scale(0.100000,-0.100000)"
fill="#000000" stroke="none">
<path d="M1145 1837 c-65 -83 -210 -267 -320 -407 -111 -140 -252 -319 -313
-398 l-112 -143 0 -80 0 -79 410 0 410 0 0 -185 0 -185 115 0 115 0 0 185 0
185 65 0 65 0 0 115 0 115 -65 0 -65 0 0 515 0 515 -92 0 -93 0 -120 -153z
m75 -573 l0 -315 -239 2 c-131 1 -243 4 -249 8 -5 3 58 89 140 191 82 102 193
240 246 307 53 67 98 122 100 122 1 1 2 -141 2 -315z"/>
<path d="M3585 1738 c-110 -139 -238 -302 -286 -363 -48 -60 -152 -193 -233
-295 l-146 -185 0 -82 0 -83 405 0 405 0 2 -183 3 -182 118 -3 117 -3 0 186 0
185 65 0 65 0 0 115 0 115 -65 0 -65 0 0 515 0 515 -94 0 -93 0 -198 -252z
m155 -473 l0 -315 -212 1 c-117 0 -230 3 -250 7 l-38 7 78 96 c42 53 153 191
247 308 93 116 171 211 172 211 2 0 3 -142 3 -315z"/>
<path d="M2099 1901 c-90 -29 -156 -71 -224 -142 -212 -225 -276 -627 -156
-977 39 -113 83 -184 166 -268 108 -109 220 -154 384 -154 337 0 581 329 581
781 0 250 -77 474 -213 616 -116 121 -214 163 -379 162 -70 0 -121 -6 -159
-18z m290 -235 c94 -48 173 -164 213 -315 29 -109 29 -316 0 -423 -43 -158
-117 -265 -219 -314 -113 -56 -263 -26 -351 70 -97 105 -144 254 -144 456 -1
153 18 242 72 349 92 183 271 257 429 177z"/>
</g>
</svg>
